<svg viewBox="0 0 1440 320"><path fill="#fff" d="M0,32L20,64C40,96,80,160,120,165.3C160,171,200,117,240,112C280,107,320,149,360,176C400,203,440,213,480,213.3C520,213,560,203,600,208C640,213,680,235,720,240C760,245,800,235,840,181.3C880,128,920,32,960,32C1000,32,1040,128,1080,170.7C1120,213,1160,203,1200,181.3C1240,160,1280,128,1320,138.7C1360,149,1400,203,1420,229.3L1440,256L1440,0L1420,0C1400,0,1360,0,1320,0C1280,0,1240,0,1200,0C1160,0,1120,0,1080,0C1040,0,1000,0,960,0C920,0,880,0,840,0C800,0,760,0,720,0C680,0,640,0,600,0C560,0,520,0,480,0C440,0,400,0,360,0C320,0,280,0,240,0C200,0,160,0,120,0C80,0,40,0,20,0L0,0Z"></path></svg>